HIERARCHY
ROOT Hips
{
	OFFSET 0.000000 0.000000 0.000000
	CHANNELS 6 Xposition Yposition Zposition Zrotation Yrotation Xrotation 
	JOINT LowerBack
	{
		OFFSET 0.000000 0.000000 0.000000
		CHANNELS 3 Zrotation Yrotation Xrotation
		JOINT Spine
		{
			OFFSET 0.028270 2.035590 -0.193380
			CHANNELS 3 Zrotation Yrotation Xrotation
			JOINT Spine1
			{
				OFFSET 0.056720 2.048850 -0.042750
				CHANNELS 3 Zrotation Yrotation Xrotation
				JOINT Neck
				{
					OFFSET 0.000000 0.000000 0.000000
					CHANNELS 3 Zrotation Yrotation Xrotation
					JOINT Neck1
					{
						OFFSET -0.054170 1.746240 0.172020
						CHANNELS 3 Zrotation Yrotation Xrotation
						JOINT Head
						{
							OFFSET 0.104070 1.761360 -0.123970
							CHANNELS 3 Zrotation Yrotation Xrotation
							End Site
							{
								OFFSET 0.000000 0.000000 0.000000
							}
						}
					}
				}
				JOINT LeftShoulder
				{
					OFFSET 0.000000 0.000000 0.000000
					CHANNELS 3 Zrotation Yrotation Xrotation
					JOINT LeftArm
					{
						OFFSET 3.362410 1.200890 -0.311210
						CHANNELS 3 Zrotation Yrotation Xrotation
						JOINT LeftForeArm
						{
							OFFSET 4.983000 -0.000000 -0.000000
							CHANNELS 3 Zrotation Yrotation Xrotation
							JOINT LeftHand
							{
								OFFSET 3.483560 -0.000000 -0.000000
								CHANNELS 3 Zrotation Yrotation Xrotation
								JOINT LeftFingerBase
								{
									OFFSET 0.000000 0.000000 0.000000
									CHANNELS 3 Zrotation Yrotation Xrotation
									JOINT LeftHandIndex1
									{
										OFFSET 0.715260 -0.000000 -0.000000
										CHANNELS 3 Zrotation Yrotation Xrotation
										End Site
										{
											OFFSET 0.000000 0.000000 0.000000
										}
									}
								}
								JOINT LThumb
								{
									OFFSET 0.000000 0.000000 0.000000
									CHANNELS 3 Zrotation Yrotation Xrotation
									End Site
									{
										OFFSET 0.000000 0.000000 0.000000
									}
								}
							}
						}
					}
				}
				JOINT RightShoulder
				{
					OFFSET 0.000000 0.000000 0.000000
					CHANNELS 3 Zrotation Yrotation Xrotation
					JOINT RightArm
					{
						OFFSET -3.136600 1.374050 -0.404650
						CHANNELS 3 Zrotation Yrotation Xrotation
						JOINT RightForeArm
						{
							OFFSET -5.241900 -0.000000 -0.000000
							CHANNELS 3 Zrotation Yrotation Xrotation
							JOINT RightHand
							{
								OFFSET -3.444170 -0.000000 -0.000000
								CHANNELS 3 Zrotation Yrotation Xrotation
								JOINT RightFingerBase
								{
									OFFSET 0.000000 0.000000 0.000000
									CHANNELS 3 Zrotation Yrotation Xrotation
									JOINT RightHandIndex1
									{
										OFFSET -0.622530 -0.000000 -0.000000
										CHANNELS 3 Zrotation Yrotation Xrotation
										End Site
										{
											OFFSET 0.000000 0.000000 0.000000
										}
									}
								}
								JOINT RThumb
								{
									OFFSET 0.000000 0.000000 0.000000
									CHANNELS 3 Zrotation Yrotation Xrotation
									End Site
									{
										OFFSET 0.000000 0.000000 0.000000
									}
								}
							}
						}
					}
				}
			}
		}
	}
}
}
MOTION
Frames: 18
Frame Time: 0.008333
-2.681661 16.123160 -1.755322 30.103918 78.523483 58.300940 -0.768001 -0.252416 8.244177 -0.938256 -0.026780 -1.274432 -5.763767 -0.099925 0.085873 10.851845 7.293970 3.678181 -3.288053 -0.323017 2.577457 0.000000 0.000000 0.000000 -7.500079 -2.596742 1.696705 -66.404727 -23.283705 11.119436 -2.617260 -35.186546 -0.023971 9.334248 -1.301566 -0.121953 -0.149846 0.177956 0.000000 0.000000 0.000000 0.000000 0.000000 0.000000 0.000000 15.510617 6.196218 0.583352 70.306924 15.204613 -16.540945 1.236599 20.417986 -0.023234 -14.551220 11.942592 -1.562720 0.094465 -0.175550 -0.000000 0.000000 0.000000 0.000000 0.000000 0.000000 0.000000 
-2.508731 16.219473 -1.705417 27.912226 78.131265 56.281340 -0.377951 -0.416450 8.064706 -0.839897 -0.192992 -1.289863 -5.750462 -0.264883 0.160378 10.882880 7.201986 3.639897 -3.253751 -0.320371 2.574284 0.000000 0.000000 0.000000 -7.483403 -2.570627 1.551981 -67.325385 -24.043243 12.385794 -2.577797 -37.632013 -0.022330 8.233037 -1.425824 -0.117778 -0.147252 0.192982 0.000000 0.000000 0.000000 0.000000 0.000000 0.000000 0.000000 15.364199 6.007533 0.789007 68.515016 14.448306 -18.926112 1.287175 18.781442 -0.022402 -14.944083 11.453111 -1.539341 0.099388 -0.168020 -0.000000 0.000000 0.000000 0.000000 0.000000 0.000000 0.000000 
-2.334049 16.317910 -1.651896 25.826900 77.721023 54.381655 0.018195 -0.568330 7.874236 -0.738267 -0.348329 -1.309301 -5.726114 -0.418911 0.225218 10.896218 7.069714 3.595228 -3.218551 -0.317781 2.569830 0.000000 0.000000 0.000000 -7.425691 -2.559078 1.398785 -68.207863 -24.807016 13.628080 -2.521253 -40.010811 -0.021185 7.436935 -1.615610 -0.120009 -0.145333 0.209098 0.000000 0.000000 0.000000 0.000000 0.000000 0.000000 0.000000 15.198822 5.791175 0.988587 66.701725 13.686297 -21.049005 1.339503 17.271265 -0.021641 -15.194205 10.922928 -1.492862 0.103647 -0.161528 -0.000000 0.000000 0.000000 0.000000 0.000000 0.000000 0.000000 
-2.157356 16.417148 -1.594436 23.900227 77.300003 52.658143 0.414139 -0.709762 7.666490 -0.635048 -0.494878 -1.333092 -5.692782 -0.564035 0.284543 10.894342 6.890307 3.539655 -3.184191 -0.315280 2.562832 0.000000 0.000000 0.000000 -7.332149 -2.541779 1.238201 -69.042257 -25.591826 14.869570 -2.450402 -42.319385 -0.020792 6.954846 -1.847636 -0.127743 -0.145085 0.226191 0.000000 0.000000 0.000000 0.000000 0.000000 0.000000 0.000000 15.026065 5.538369 1.178956 64.874414 12.921527 -22.884014 1.396487 15.893125 -0.020880 -15.284248 10.341702 -1.422182 0.107386 -0.155812 -0.000000 0.000000 0.000000 0.000000 0.000000 0.000000 0.000000 
-1.978692 16.515844 -1.532690 22.177723 76.875337 51.157499 0.801487 -0.842742 7.436483 -0.531867 -0.634965 -1.362714 -5.650068 -0.702692 0.337110 10.876625 6.662736 3.474564 -3.150882 -0.312896 2.553779 0.000000 0.000000 0.000000 -7.195893 -2.534330 1.070848 -69.825003 -26.369741 16.086918 -2.365862 -44.576435 -0.021298 6.760673 -2.102228 -0.140578 -0.146899 0.244137 0.000000 0.000000 0.000000 0.000000 0.000000 0.000000 0.000000 14.846657 5.244937 1.359782 63.048187 12.164581 -24.463590 1.460631 14.623127 -0.020032 -15.188733 9.734898 -1.330701 0.110590 -0.150811 -0.000000 0.000000 0.000000 0.000000 0.000000 0.000000 0.000000 
-1.798021 16.612781 -1.466285 20.690398 76.453004 49.912711 1.170679 -0.969371 7.180960 -0.431475 -0.770917 -1.398205 -5.601963 -0.837167 0.386806 10.850743 6.392155 3.397155 -3.120722 -0.310685 2.541766 0.000000 0.000000 0.000000 -7.024912 -2.508646 0.901465 -70.546680 -27.169058 17.301554 -2.274207 -46.769098 -0.022742 6.811877 -2.359543 -0.158513 -0.151211 0.262681 0.000000 0.000000 0.000000 0.000000 0.000000 0.000000 0.000000 14.678101 4.916098 1.527522 61.226250 11.395270 -25.730580 1.532775 13.508432 -0.019116 -14.928148 9.065616 -1.218417 0.113471 -0.146131 -0.000000 0.000000 0.000000 0.000000 0.000000 0.000000 0.000000 
-1.615748 16.706702 -1.395011 19.457387 76.037341 48.938591 1.513570 -1.092160 6.901030 -0.334933 -0.905202 -1.440313 -5.545682 -0.970099 0.429976 10.811319 6.080873 3.311835 -3.092210 -0.308618 2.528097 0.000000 0.000000 0.000000 -6.804587 -2.499658 0.729968 -71.209953 -27.940370 18.458162 -2.174946 -48.926115 -0.025021 7.040671 -2.610128 -0.180746 -0.157506 0.281675 0.000000 0.000000 0.000000 0.000000 0.000000 0.000000 0.000000 14.507457 4.550560 1.683904 59.430217 10.643513 -26.789090 1.613601 12.484489 -0.018040 -14.481582 8.408242 -1.096831 0.115833 -0.142002 -0.000000 0.000000 0.000000 0.000000 0.000000 0.000000 0.000000 
-1.432169 16.796536 -1.318750 18.479683 75.630763 48.231785 1.823757 -1.213549 6.600932 -0.243652 -1.039973 -1.487926 -5.481999 -1.103638 0.468001 10.758716 5.735301 3.218609 -3.065266 -0.306663 2.512626 0.000000 0.000000 0.000000 -6.535229 -2.499986 0.559149 -71.813021 -28.687521 19.548074 -2.071905 -51.048785 -0.027961 7.378891 -2.844604 -0.206179 -0.165350 0.300898 0.000000 0.000000 0.000000 0.000000 0.000000 0.000000 0.000000 14.334102 4.154448 1.827886 57.669272 9.915308 -27.669555 1.701889 11.544317 -0.016799 -13.868322 7.786009 -0.973342 0.117683 -0.138410 -0.000000 0.000000 0.000000 0.000000 0.000000 0.000000 0.000000 
-1.247561 16.881429 -1.237602 17.741972 75.234518 47.771533 2.097261 -1.334940 6.287135 -0.159460 -1.176191 -1.539266 -5.415802 -1.238673 0.503647 10.701719 5.372109 3.116881 -3.041413 -0.304855 2.494910 0.000000 0.000000 0.000000 -6.229086 -2.476816 0.395502 -72.351270 -29.448048 20.597360 -1.971626 -53.121155 -0.031320 7.764424 -3.051260 -0.232708 -0.174461 0.320056 0.000000 0.000000 0.000000 0.000000 0.000000 0.000000 0.000000 14.172910 3.748276 1.957033 55.943519 9.167352 -28.276505 1.796908 10.772087 -0.015505 -13.148002 7.143872 -0.847451 0.119285 -0.134907 -0.000000 0.000000 0.000000 0.000000 0.000000 0.000000 0.000000 
-1.062516 16.960504 -1.151946 17.217893 74.848282 47.520324 2.336350 -1.458605 5.971087 -0.080806 -1.315413 -1.592139 -5.342270 -1.376822 0.534748 10.627494 4.990307 3.009562 -3.017586 -0.303048 2.475701 0.000000 0.000000 0.000000 -5.876401 -2.458777 0.236701 -72.830291 -30.182192 21.555586 -1.871446 -55.171367 -0.034828 8.133589 -3.231449 -0.258337 -0.183730 0.339088 -0.000000 0.000000 0.000000 0.000000 0.000000 0.000000 0.000000 13.996140 3.328560 2.074230 54.269309 8.455922 -28.778142 1.895551 10.061107 -0.014059 -12.315169 6.597267 -0.733857 0.120382 -0.132085 -0.000000 0.000000 0.000000 0.000000 0.000000 0.000000 0.000000 
-0.877191 17.033194 -1.062272 16.868474 74.471944 47.431985 2.544851 -1.584610 5.663279 -0.008232 -1.457121 -1.643644 -5.267394 -1.517429 0.564504 10.545785 4.607154 2.895725 -2.995716 -0.301288 2.454405 0.000000 0.000000 0.000000 -5.496781 -2.407235 0.089422 -73.245214 -30.938290 22.462677 -1.776605 -57.181743 -0.038246 8.447806 -3.375720 -0.280666 -0.192950 0.357735 -0.000000 0.000000 0.000000 0.000000 0.000000 0.000000 0.000000 13.821660 2.918186 2.177790 52.639759 7.723123 -29.025428 1.997793 9.524563 -0.012613 -11.445024 6.065967 -0.627960 0.121375 -0.129371 -0.000000 0.000000 0.000000 0.000000 0.000000 0.000000 0.000000 
-0.692068 17.098823 -0.969305 16.651701 74.105295 47.452774 2.732308 -1.713763 5.376575 0.061040 -1.601482 -1.690964 -5.187370 -1.660657 0.591813 10.444614 4.221818 2.777176 -2.973229 -0.299438 2.431434 0.000000 0.000000 0.000000 -5.090013 -2.339214 -0.048585 -73.599987 -31.694384 23.288440 -1.684013 -59.172829 -0.041364 8.674911 -3.488360 -0.298496 -0.201293 0.376001 -0.000000 0.000000 0.000000 0.000000 0.000000 0.000000 0.000000 13.625228 2.515341 2.270563 51.062171 7.010565 -29.143172 2.100207 9.083298 -0.011100 -10.545673 5.633218 -0.538161 0.122154 -0.127235 -0.000000 0.000000 0.000000 0.000000 0.000000 0.000000 0.000000 
-0.507375 17.156931 -0.873818 16.524575 73.748521 47.531314 2.909250 -1.845411 5.121478 0.129018 -1.747431 -1.731601 -5.102495 -1.805392 0.617216 10.321479 3.839442 2.654525 -2.949591 -0.297448 2.406795 0.000000 0.000000 0.000000 -4.666124 -2.249390 -0.176479 -73.894111 -32.459559 24.036099 -1.593205 -61.147528 -0.044048 8.803046 -3.571401 -0.311030 -0.208427 0.393844 -0.000000 0.000000 0.000000 0.000000 0.000000 0.000000 0.000000 13.401561 2.126954 2.353836 49.534211 6.311419 -29.123527 2.201198 8.747780 -0.009545 -9.652962 5.297962 -0.464060 0.122874 -0.125637 -0.000000 0.000000 0.000000 0.000000 0.000000 0.000000 0.000000 
-0.323136 17.206978 -0.776525 16.451302 73.403382 47.626152 3.085419 -1.978348 4.905273 0.197071 -1.893593 -1.763350 -5.015021 -1.950157 0.643185 10.177633 3.461288 2.526445 -2.925441 -0.295316 2.379957 0.000000 0.000000 0.000000 -4.240195 -2.122991 -0.292633 -74.126333 -33.256801 24.724698 -1.504623 -63.100644 -0.046228 8.836392 -3.626409 -0.318069 -0.214374 0.411195 -0.000000 0.000000 0.000000 0.000000 0.000000 0.000000 0.000000 13.154750 1.756269 2.428293 48.048286 5.608029 -28.901929 2.301071 8.557106 -0.008017 -8.807828 5.029157 -0.402656 0.123801 -0.124316 -0.000000 0.000000 0.000000 0.000000 0.000000 0.000000 0.000000 
-0.139468 17.248418 -0.678046 16.408074 73.071654 47.708288 3.269535 -2.111604 4.732570 0.267055 -2.038940 -1.784773 -4.924006 -2.093900 0.671215 10.008433 3.081685 2.391961 -2.899963 -0.292977 2.350600 0.000000 0.000000 0.000000 -3.820280 -1.960857 -0.398419 -74.297444 -34.089359 25.354239 -1.416638 -65.034050 -0.047912 8.787475 -3.660264 -0.320413 -0.219110 0.428078 -0.000000 0.000000 0.000000 0.000000 0.000000 0.000000 0.000000 12.876571 1.397165 2.495491 46.600749 4.912954 -28.503796 2.398686 8.489027 -0.006511 -8.027287 4.838365 -0.353752 0.125021 -0.123309 -0.000000 0.000000 0.000000 0.000000 0.000000 0.000000 0.000000 
0.043549 17.280586 -0.578848 16.386864 72.756133 47.765685 3.466336 -2.243967 4.604483 0.340465 -2.182257 -1.796436 -4.826341 -2.235571 0.698423 9.809185 2.701063 2.254006 -2.871316 -0.290368 2.319615 0.000000 0.000000 0.000000 -3.401348 -1.782566 -0.497296 -74.414337 -34.936287 25.905699 -1.326306 -66.953998 -0.049145 8.672317 -3.685694 -0.319665 -0.222503 0.444663 -0.000000 0.000000 0.000000 0.000000 0.000000 0.000000 0.000000 12.553616 1.048890 2.557617 45.196198 4.225021 -27.980725 2.492323 8.519057 -0.005012 -7.315940 4.734899 -0.316044 0.126538 -0.122701 -0.000000 0.000000 0.000000 0.000000 0.000000 0.000000 0.000000 
0.225978 17.302768 -0.479143 16.392027 72.458756 47.801806 3.675922 -2.374756 4.518177 0.416865 -2.323027 -1.797821 -4.723435 -2.374610 0.729406 9.581173 2.306803 2.108313 -2.839881 -0.287466 2.285804 0.000000 0.000000 0.000000 -2.993863 -1.574920 -0.589750 -74.476629 -35.818931 26.401491 -1.234336 -68.846382 -0.050018 8.516297 -3.706765 -0.316822 -0.224974 0.460895 -0.000000 0.000000 0.000000 0.000000 0.000000 0.000000 0.000000 12.189552 0.698353 2.614556 43.828413 3.545885 -27.303184 2.582674 8.654418 -0.003557 -6.691435 4.691078 -0.286835 0.128508 -0.122267 -0.000000 0.000000 0.000000 0.000000 0.000000 0.000000 0.000000 
0.407839 17.314177 -0.379010 16.439401 72.181142 47.832032 3.894732 -2.503235 4.468079 0.495765 -2.460672 -1.790102 -4.613600 -2.510584 0.764584 9.322885 1.891256 1.954223 -2.804334 -0.284208 2.249111 0.000000 0.000000 0.000000 -2.595609 -1.345070 -0.678619 -74.488732 -36.730966 26.839845 -1.139823 -70.704550 -0.050656 8.340840 -3.729551 -0.313386 -0.226687 0.476806 -0.000000 0.000000 0.000000 0.000000 0.000000 0.000000 0.000000 11.777211 0.336690 2.667111 42.501809 2.879093 -26.507821 2.668824 8.873890 -0.002156 -6.153774 4.699711 -0.264726 0.130927 -0.121995 -0.000000 0.000000 0.000000 0.000000 0.000000 0.000000 0.000000 
